#N canvas 156 112 1217 814 10;
#X obj 915 66 tgl 15 0 empty empty empty 17 7 0 10 -262144 -1 -1 1
1;
#X msg 915 102 \; pd dsp \$1;
#X obj 577 150 wrap~;
#X obj 576 171 expr~ $v1 < 0.5;
#X obj 575 191 edge~;
#X msg 549 99 0;
#X obj 322 493 line~;
#X obj 321 542 osc~;
#X msg 351 517 0.5;
#X obj 420 503 line~;
#X obj 321 725 dac~;
#X obj 320 582 *~;
#X msg 322 467 110 \, 50 100;
#X msg 420 478 1 \, 0 200;
#X obj 602 213 bng 15 250 50 0 empty empty empty 17 7 0 10 -262144
-1 -1;
#N canvas 1085 479 312 300 bpm 0;
#X floatatom 130 126 5 30 300 0 - - -;
#X obj 130 170 / 60;
#X floatatom 130 220 5 0 0 0 - - -;
#X obj 130 244 outlet;
#X obj 179 244 s bpmfreq;
#X obj 130 195 * 4;
#X connect 0 0 1 0;
#X connect 1 0 5 0;
#X connect 2 0 3 0;
#X connect 2 0 4 0;
#X connect 5 0 2 0;
#X coords 0 -1 1 1 85 60 1 100 100;
#X restore 594 54 pd bpm;
#X obj 578 130 phasor~;
#X msg 607 467 1 \, 0 50;
#X obj 607 496 line~;
#X obj 607 442 bng 15 250 50 0 empty empty empty 17 7 0 10 -262144
-1 -1;
#X obj 533 527 *~;
#N canvas 23 676 604 300 hatosc 0;
#N canvas 33 517 450 300 pwm_1 0;
#X obj 87 55 phasor~ 1047;
#X obj 87 91 expr~ $v1 < 0.5;
#X obj 87 125 outlet~;
#X connect 0 0 1 0;
#X connect 1 0 2 0;
#X restore 94 110 pd pwm_1;
#N canvas 726 342 450 300 pwm_2 0;
#X obj 87 91 expr~ $v1 < 0.5;
#X obj 87 125 outlet~;
#X obj 87 55 phasor~ 1481;
#X connect 0 0 1 0;
#X connect 2 0 0 0;
#X restore 154 110 pd pwm_2;
#N canvas 726 321 450 300 pwm_3 0;
#X obj 87 91 expr~ $v1 < 0.5;
#X obj 87 125 outlet~;
#X obj 87 55 phasor~ 1109;
#X connect 0 0 1 0;
#X connect 2 0 0 0;
#X restore 214 110 pd pwm_3;
#N canvas 726 300 450 300 pwm_4 0;
#X obj 87 91 expr~ $v1 < 0.5;
#X obj 87 125 outlet~;
#X obj 87 55 phasor~ 2490;
#X connect 0 0 1 0;
#X connect 2 0 0 0;
#X restore 274 110 pd pwm_4;
#N canvas 726 279 450 300 pwm_5 0;
#X obj 87 91 expr~ $v1 < 0.5;
#X obj 87 125 outlet~;
#X obj 87 55 phasor~ 1397;
#X connect 0 0 1 0;
#X connect 2 0 0 0;
#X restore 334 110 pd pwm_5;
#N canvas 726 258 450 300 pwm_6 0;
#X obj 87 91 expr~ $v1 < 0.5;
#X obj 87 125 outlet~;
#X obj 87 55 phasor~ 2490;
#X connect 0 0 1 0;
#X connect 2 0 0 0;
#X restore 394 110 pd pwm_6;
#X obj 239 233 outlet~;
#X obj 240 168 hip~ 6000;
#X obj 240 188 hip~ 6000;
#X obj 240 208 hip~ 6000;
#X connect 0 0 7 0;
#X connect 1 0 7 0;
#X connect 2 0 7 0;
#X connect 3 0 7 0;
#X connect 4 0 7 0;
#X connect 5 0 7 0;
#X connect 7 0 8 0;
#X connect 8 0 9 0;
#X connect 9 0 6 0;
#X restore 532 467 pd hatosc;
#X obj 602 231 f;
#X obj 636 231 + 1;
#X obj 368 287 % 16;
#X obj 368 312 hradio 15 1 0 16 empty empty empty 0 -8 0 10 -262144
-1 -1 9;
#X obj 420 383 bng 15 250 50 0 empty empty empty 17 7 0 10 -262144
-1 -1;
#X obj 368 336 sel 0 1 2 3 4 5 6 7 8 9 10 11 12 13 14 15;
#X obj 663 300 % 6;
#X obj 663 324 hradio 15 1 0 6 empty empty empty 0 -8 0 10 -262144
-1 -1 3;
#X obj 677 378 bng 15 250 50 0 empty empty empty 17 7 0 10 -262144
-1 -1;
#X obj 788 527 expr~ $v1 < 0.5;
#X obj 677 496 line~;
#X obj 788 474 phasor~ 110;
#X floatatom 710 577 5 1 50 0 - - -;
#X obj 663 347 sel 0 1 2 3 4 5;
#X obj 803 329 vsl 15 80 1.27 127 0 0 empty empty empty 0 -9 0 10 -262144
-1 -1 2600 1;
#X obj 788 422 f;
#X obj 788 447 mtof;
#X obj 833 329 vsl 15 80 1.27 127 0 0 empty empty empty 0 -9 0 10 -262144
-1 -1 3600 1;
#X obj 818 422 f;
#X obj 863 329 vsl 15 80 1.27 127 0 0 empty empty empty 0 -9 0 10 -262144
-1 -1 2800 1;
#X obj 848 422 f;
#X obj 532 553 *~ 0.5;
#X obj 666 601 vcf~;
#X obj 720 432 del 100;
#X msg 720 456 0 150;
#X obj 874 498 phasor~ 110;
#X obj 874 474 mtof;
#X obj 874 448 - 12.001;
#X obj 126 417 bng 15 250 50 0 empty empty empty 17 7 0 10 -262144
-1 -1;
#X obj 226 604 line~;
#X obj 217 625 vcf~;
#X floatatom 266 604 5 0 0 0 - - -;
#X obj 149 603 phasor~ 110;
#X msg 169 489 0 750;
#X obj 169 467 del 150;
#X obj 226 417 bng 15 250 50 0 empty empty empty 17 7 0 10 -262144
-1 -1;
#X obj 129 573 phasor~ 92.49;
#X msg 256 489 0 1;
#X msg 226 447 700 300;
#X obj 256 467 del 300;
#X msg 126 447 700 0;
#X msg 677 407 400 0;
#X connect 0 0 1 0;
#X connect 2 0 3 0;
#X connect 3 0 4 0;
#X connect 4 1 14 0;
#X connect 5 0 16 0;
#X connect 6 0 7 0;
#X connect 7 0 11 0;
#X connect 8 0 7 1;
#X connect 9 0 11 1;
#X connect 11 0 10 0;
#X connect 11 0 10 1;
#X connect 12 0 6 0;
#X connect 13 0 9 0;
#X connect 14 0 22 0;
#X connect 15 0 16 0;
#X connect 16 0 2 0;
#X connect 17 0 18 0;
#X connect 18 0 20 1;
#X connect 19 0 17 0;
#X connect 20 0 43 0;
#X connect 21 0 20 0;
#X connect 22 0 23 0;
#X connect 22 0 24 0;
#X connect 22 0 28 0;
#X connect 23 0 22 1;
#X connect 24 0 25 0;
#X connect 25 0 27 0;
#X connect 26 0 13 0;
#X connect 26 0 8 0;
#X connect 26 0 12 0;
#X connect 27 1 26 0;
#X connect 27 3 19 0;
#X connect 27 3 57 0;
#X connect 27 4 19 0;
#X connect 27 5 26 0;
#X connect 27 6 57 0;
#X connect 27 8 19 0;
#X connect 27 9 26 0;
#X connect 27 10 19 0;
#X connect 27 12 19 0;
#X connect 27 13 26 0;
#X connect 27 13 50 0;
#X connect 27 15 19 0;
#X connect 27 16 19 0;
#X connect 28 0 29 0;
#X connect 29 0 35 0;
#X connect 30 0 63 0;
#X connect 30 0 45 0;
#X connect 31 0 44 0;
#X connect 32 0 44 1;
#X connect 33 0 31 0;
#X connect 34 0 44 2;
#X connect 35 1 30 0;
#X connect 35 1 37 0;
#X connect 35 2 30 0;
#X connect 35 2 40 0;
#X connect 35 4 30 0;
#X connect 35 4 42 0;
#X connect 36 0 37 1;
#X connect 37 0 38 0;
#X connect 37 0 49 0;
#X connect 38 0 33 0;
#X connect 39 0 40 1;
#X connect 40 0 38 0;
#X connect 40 0 49 0;
#X connect 41 0 42 1;
#X connect 42 0 38 0;
#X connect 42 0 49 0;
#X connect 43 0 10 0;
#X connect 43 0 10 1;
#X connect 44 1 10 0;
#X connect 44 1 10 1;
#X connect 45 0 46 0;
#X connect 46 0 32 0;
#X connect 47 0 31 0;
#X connect 48 0 47 0;
#X connect 49 0 48 0;
#X connect 50 0 62 0;
#X connect 50 0 56 0;
#X connect 51 0 52 1;
#X connect 52 1 10 0;
#X connect 52 1 10 1;
#X connect 53 0 52 2;
#X connect 54 0 52 0;
#X connect 55 0 51 0;
#X connect 56 0 55 0;
#X connect 57 0 60 0;
#X connect 57 0 61 0;
#X connect 58 0 52 0;
#X connect 59 0 51 0;
#X connect 60 0 51 0;
#X connect 61 0 59 0;
#X connect 62 0 51 0;
#X connect 63 0 32 0;
